<?xml version="1.0" encoding="UTF-8" standalone="no"?>
<!-- Created with Inkscape (http://www.inkscape.org/) -->

<svg
   width="342.09644mm"
   height="83.820206mm"
   viewBox="0 0 342.09644 83.820206"
   version="1.1"
   id="svg21"
   xml:space="preserve"
   xmlns:inkscape="http://www.inkscape.org/namespaces/inkscape"
   xmlns:sodipodi="http://sodipodi.sourceforge.net/DTD/sodipodi-0.dtd"
   xmlns="http://www.w3.org/2000/svg"
   xmlns:svg="http://www.w3.org/2000/svg"><sodipodi:namedview
     id="namedview23"
     pagecolor="#ffffff"
     bordercolor="#000000"
     borderopacity="0.25"
     inkscape:showpageshadow="2"
     inkscape:pageopacity="0.0"
     inkscape:pagecheckerboard="0"
     inkscape:deskcolor="#d1d1d1"
     inkscape:document-units="mm"
     showgrid="false" /><defs
     id="defs18" /><g
     inkscape:label="Warstwa 1"
     inkscape:groupmode="layer"
     id="layer1"
     transform="translate(109.73542,-31.469915)"><g
       id="g479"><g
         id="g482"><g
           id="g583"><path
             id="path380"
             style="fill:#007acc;fill-opacity:1;stroke-width:0.282222"
             d="m -109.73542,31.469914 v 41.910103 41.910103 h 41.910103 41.910103 V 73.380017 31.469914 h -41.910103 z m 64.346976,38.129972 c 2.810592,0.03285 4.855284,0.594485 6.693648,1.811259 1.504469,0.995769 3.748609,3.538773 3.748609,4.247803 0,0.393049 -5.235069,4.071069 -5.794479,4.071069 -0.16234,0 -0.76395,-0.560519 -1.336869,-1.245919 -1.214629,-1.453088 -2.534732,-1.987706 -4.39353,-1.778186 -1.813488,0.2044 -2.868559,1.386173 -2.868559,3.213241 0,1.896718 1.193236,2.919117 5.795512,4.966105 7.688522,3.419687 10.072866,5.744158 10.911995,10.637594 0.40156,2.341677 0.02338,5.251118 -0.923974,7.108088 -1.315429,2.57846 -4.220595,4.64825 -7.664132,5.46014 -1.628688,0.38399 -6.128209,0.51676 -7.837248,0.23099 -1.668258,-0.27894 -4.318865,-1.32839 -5.841504,-2.31252 -1.709728,-1.10506 -3.784701,-3.24771 -4.521171,-4.66897 -0.516259,-0.99627 -0.612828,-0.9058 3.410128,-3.191532 2.590568,-1.471889 2.804345,-1.545409 3.078365,-1.05575 0.65052,1.162399 2.583321,2.964622 3.82664,3.568262 0.990919,0.48111 1.80754,0.63807 3.293339,0.63407 3.331197,-0.01 5.217836,-1.419097 5.219836,-3.900025 0.0016,-1.654408 -1.380597,-2.798255 -5.800162,-4.800223 -2.009198,-0.910119 -4.351648,-2.0739 -5.205367,-2.585889 -2.151878,-1.290499 -4.062063,-3.336781 -4.985743,-5.340759 -0.684659,-1.485399 -0.782132,-2.040207 -0.790132,-4.520655 -0.0089,-2.631307 0.05396,-2.957512 0.910022,-4.696871 1.106989,-2.249177 2.603825,-3.667633 5.113383,-4.846732 1.618408,-0.760389 2.250012,-0.893003 4.70824,-0.986503 0.434405,-0.01652 0.85164,-0.02278 1.253153,-0.01809 z m -46.00236,0.252181 h 14.816667 14.816666 v 3.669027 3.669026 h -5.359879 -5.35988 l -0.07286,15.45177 -0.07286,15.45125 -3.826123,0.0785 c -2.104248,0.043 -3.91379,-0.0101 -4.02146,-0.11782 -0.10766,-0.10766 -0.195854,-7.09607 -0.195854,-15.529802 V 77.19012 h -5.361947 -5.362463 v -3.669026 z" /></g></g><path
         id="rect677"
         style="fill:#000000;stroke-width:2.1"
         d="m 121.13628,50.019686 c -2.89271,-0.0432 -5.73235,0.48114 -7.79953,1.527038 -1.91193,0.967347 -4.12652,3.309492 -5.09323,5.385718 -0.63933,1.373097 -0.75527,1.999364 -0.74827,4.062285 0.007,2.23942 0.0936,2.61358 1.05988,4.568713 0.88981,1.800408 1.37598,2.38977 3.14348,3.811654 1.14983,0.924987 3.79502,2.707215 5.87871,3.960998 6.86268,4.129375 8.55954,5.697593 9.24181,8.541598 0.96158,4.00833 -0.76352,7.705571 -4.33048,9.281087 -1.70452,0.752878 -5.10793,1.109528 -7.65793,0.802535 -2.32159,-0.279493 -3.41896,-0.612727 -5.58106,-1.69447 -0.8881,-0.444336 -1.68223,-0.807703 -1.76423,-0.807703 -0.0821,0 -0.14883,0.705413 -0.14883,1.567863 v 1.56838 l 1.26762,0.560689 c 0.69716,0.308387 2.18938,0.802381 3.31608,1.097607 2.36735,0.620313 6.97527,0.74413 9.30176,0.250114 3.4772,-0.738366 6.57707,-3.172095 8.04343,-6.31486 0.70261,-1.505955 0.78935,-2.00556 0.78135,-4.515486 -0.008,-2.497733 -0.0989,-3.007307 -0.79065,-4.431771 -1.17612,-2.422072 -3.82029,-4.683675 -9.30486,-7.958688 -6.14949,-3.672062 -7.55103,-4.789554 -8.53798,-6.806819 -1.04501,-2.135938 -1.10502,-4.986905 -0.14676,-6.975285 1.84553,-3.829508 6.82041,-5.520152 12.72481,-4.323767 1.30293,0.264006 2.79373,0.657926 3.31297,0.874882 l 0.94413,0.394291 -0.0842,-1.611271 -0.0842,-1.610754 -1.83452,-0.503846 c -1.61852,-0.444514 -3.37362,-0.674814 -5.10924,-0.700732 z m -133.321066,0.63407 -0.08165,2.328023 -0.08216,2.32854 h 6.3613686 6.36136877 V 74.642472 93.974626 H 2.914034 5.4544474 V 74.642472 55.310319 h 6.2202926 6.220292 l -0.08217,-2.32854 -0.08216,-2.328023 H 2.7729574 Z m 192.356736,0.151928 c -0.57806,-0.04584 -1.17431,0.09338 -1.65261,0.428398 -1.12034,0.78472 -0.73512,3.257849 0.59066,3.792017 1.06795,0.430284 1.62307,0.308598 2.47271,-0.541053 1.01804,-1.018038 1.06432,-2.065725 0.1323,-2.997749 -0.40507,-0.405063 -0.96501,-0.635776 -1.54306,-0.681613 z m 44.19575,3.375505 c -0.05,0 -0.68156,0.201518 -1.40353,0.447518 l -1.31258,0.447001 -0.078,3.997689 -0.078,3.997689 -2.76779,0.08113 -2.76727,0.08113 0.0863,1.189074 0.0863,1.189075 2.73782,0.08062 2.7373,0.08061 0.0847,11.913485 0.0848,11.914002 0.84646,1.680517 c 0.96688,1.919346 1.78098,2.609552 3.71605,3.150196 1.43561,0.401096 3.10717,0.326904 4.92786,-0.218592 1.05041,-0.314705 1.09244,-0.374151 1.09244,-1.55236 0,-0.673929 -0.0478,-1.225248 -0.10645,-1.225248 -0.0587,0 -0.56258,0.190397 -1.11983,0.42323 -2.44949,1.023464 -5.26465,0.257147 -6.14071,-1.671733 -0.48105,-1.059173 -0.52265,-2.072556 -0.52865,-12.791984 l -0.006,-11.641666 h 3.95118 3.95118 v -1.270207 -1.270207 h -3.95118 -3.95118 v -4.515486 c 0,-2.483554 -0.041,-4.515487 -0.0909,-4.515487 z m -74.67089,8.224304 c -1.18561,-0.0133 -2.32262,0.05874 -3.19516,0.22841 -5.28224,1.027152 -9.60904,5.038384 -11.40705,10.575065 -0.62051,1.910739 -0.74482,2.828546 -0.76792,5.666838 -0.0315,3.867863 0.31088,5.606094 1.67277,8.487337 1.64517,3.48059 4.85831,6.097848 8.68836,7.076571 0.92786,0.237093 2.4753,0.327533 4.27622,0.250113 2.81608,-0.121053 4.41952,-0.480738 6.4208,-1.440738 1.00673,-0.482945 1.05833,-0.57418 1.05833,-1.870687 v -1.363225 l -1.62264,0.817005 c -2.27338,1.144188 -4.35298,1.543077 -7.29981,1.400431 -2.1788,-0.10547 -2.74158,-0.246436 -4.29276,-1.07487 -3.99608,-2.134177 -5.97586,-6.138849 -5.97586,-12.088667 0,-5.007557 1.13826,-8.048244 4.10207,-10.956954 2.12498,-2.085465 4.07538,-2.935105 7.19595,-3.13521 2.47016,-0.158398 4.60286,0.222154 6.7076,1.19786 l 1.49551,0.693498 -0.0842,-1.598869 -0.0848,-1.598869 -1.55236,-0.545186 c -1.24792,-0.438408 -3.35906,-0.69768 -5.33507,-0.719853 z m -57.916366,0.02429 c -5.117096,-0.0016 -9.703956,2.761656 -12.189437,7.491532 -1.424335,2.710516 -1.945621,5.167768 -1.929081,9.095569 0.03765,8.937943 3.984555,14.344139 11.330058,15.519983 3.455631,0.553164 8.620627,-0.201316 11.571386,-1.690853 l 1.69292,-0.855245 V 89.73716 c 0,-2.056633 -0.24054,-2.723053 -0.70952,-1.964221 -0.32715,0.52933 -3.92408,2.177112 -5.535059,2.535763 -2.272877,0.506009 -5.965967,0.25148 -7.72511,-0.532268 -3.18818,-1.420426 -5.093961,-4.38917 -5.593457,-8.71368 l -0.138493,-1.19941 h 11.0231 11.022579 l -0.17518,-3.175 c -0.29125,-5.26687 -1.43039,-8.477509 -3.87522,-10.92233 -1.751411,-1.75142 -3.796309,-2.739598 -6.548433,-3.164148 -0.748077,-0.115401 -1.490039,-0.171854 -2.221053,-0.172083 z m -30.39556,0.0026 c -4.094865,-0.09789 -7.780377,1.720973 -10.256739,5.126302 l -0.800468,1.100708 v -2.723348 -2.723348 h -2.539896 -2.540414 v 22.577433 22.57795 h 2.540414 2.539896 v -9.284187 -9.284188 l 1.916679,1.916679 c 1.656768,1.656767 2.178192,1.997655 3.840076,2.510957 6.131714,1.893896 12.810437,-0.872708 15.620752,-6.470406 1.46433,-2.916707 2.047569,-5.726126 2.042769,-9.843327 -0.0048,-4.079607 -0.433504,-6.286881 -1.71359,-8.822717 -1.861039,-3.686695 -4.844664,-5.872225 -8.87181,-6.498311 -0.59935,-0.09318 -1.192689,-0.146213 -1.777669,-0.160197 z m 111.172026,0.195854 c -1.35038,-0.0067 -2.88185,0.23848 -3.83698,0.685229 -1.72233,0.80561 -3.63358,2.828042 -4.52478,4.788338 l -0.66405,1.460893 -0.016,-3.175 -0.0165,-3.175 h -1.41077 -1.41128 V 78.59367 93.974644 h 1.41128 1.41077 V 84.78759 c 0,-10.375041 0.1872,-11.864125 1.90789,-15.1691 1.21682,-2.337178 2.77884,-3.735788 4.84053,-4.335136 1.52979,-0.444723 2.09973,-0.40189 4.47001,0.33693 0.5957,0.185692 0.63511,0.116836 0.63511,-1.112077 0,-1.14641 -0.0904,-1.344032 -0.72399,-1.584916 -0.51582,-0.196115 -1.26096,-0.29105 -2.07119,-0.295072 z m 30.17077,0.160713 c -3.36903,0 -3.61194,0.03992 -5.39709,0.885734 -2.18752,1.036464 -3.8969,2.499164 -5.22345,4.468978 l -0.95085,1.411284 v -3.171383 -3.170866 h -1.41077 -1.41128 v 22.577433 22.57795 h 1.41128 1.41077 l 0.015,-9.807153 c 0.014,-9.29778 0.0396,-9.770675 0.49144,-9.10177 1.22673,1.81598 3.26758,3.6403 4.93407,4.410067 1.61629,0.746579 2.01456,0.810168 5.00176,0.803568 4.40476,-0.0097 5.85683,-0.576827 8.67595,-3.38894 3.73998,-3.730672 5.01075,-7.578583 4.79609,-14.524695 -0.14367,-4.648833 -0.71574,-6.727748 -2.60811,-9.475391 -1.20921,-1.755715 -2.35669,-2.690302 -4.58835,-3.736206 -1.48625,-0.696558 -1.90729,-0.75861 -5.14645,-0.75861 z m -189.921743,0.423747 0.261999,0.68833 c 0.144009,0.378769 2.828877,7.267398 5.966561,15.30811 3.137685,8.040709 5.700009,14.74746 5.693709,14.903999 -0.0063,0.15654 -0.686962,1.870143 -1.512569,3.80752 -2.347433,5.508524 -3.82667,6.744724 -7.645528,6.389794 l -1.931665,-0.17984 v 2.10014 c 0,2.06984 0.01117,2.10168 0.77618,2.235 0.426861,0.0744 1.75911,0.0948 2.960543,0.0455 1.858333,-0.0763 2.448227,-0.23391 3.95118,-1.05575 2.099424,-1.148 3.955952,-3.29759 5.399153,-6.25182 0.805335,-1.648523 15.135511,-37.512339 15.135511,-37.879342 0,-0.06166 -1.121716,-0.111621 -2.492871,-0.111621 h -2.493388 l -4.422986,12.064897 c -2.432725,6.635743 -4.501572,12.477682 -4.597652,12.982153 -0.203109,1.066452 -0.534652,1.18911 -0.762228,0.282153 -0.08763,-0.349249 -2.10059,-6.191188 -4.473112,-12.982153 L 18.305343,63.212679 H 15.55564 Z m 165.932503,0 V 78.75025 94.287803 l 1.34049,-0.08578 1.341,-0.0863 0.0729,-15.45177 0.0729,-15.451253 h -1.41335 z m 23.06785,1.768884 c 0.9148,-0.02544 1.83615,0.06881 2.73626,0.290939 5.01183,1.236792 7.76487,5.632694 7.77627,12.415779 0.0111,6.610375 -2.72266,12.205268 -6.85746,14.034286 -1.43766,0.635945 -4.39035,0.907521 -6.05751,0.557072 -2.99811,-0.630222 -5.6789,-2.918596 -7.213,-6.15673 -0.87044,-1.837311 -0.89585,-2.000686 -0.98805,-6.456971 -0.12808,-6.190346 0.53496,-8.496064 3.29024,-11.441679 1.88237,-2.012407 4.56883,-3.166363 7.31325,-3.242696 z M 59.725553,66.565446 c 2.365387,0.0057 3.544887,0.309923 5.04517,1.302763 2.642066,1.748437 3.943646,5.00891 3.947046,9.886218 0.0036,5.084774 -1.148759,8.35661 -3.775997,10.718726 -0.744033,0.668948 -1.94642,1.418414 -2.671671,1.665531 -1.596733,0.544058 -4.634455,0.564936 -6.10092,0.04186 -2.482695,-0.885558 -4.496268,-2.979541 -5.384167,-5.599658 -0.681619,-2.011412 -0.642122,-8.87189 0.06408,-11.140922 1.347838,-4.330609 4.646208,-6.884746 8.87646,-6.874516 z m 31.447693,0.07906 c 0.379546,-0.0169 0.770125,-0.0108 1.172539,0.01809 4.062426,0.29163 6.52956,2.850171 6.989237,7.248136 l 0.179834,1.719275 h -8.365898 c -6.81481,0 -8.365897,-0.06993 -8.365897,-0.378788 0,-0.821935 1.141081,-3.629096 1.957503,-4.815727 1.670817,-2.428449 3.775861,-3.672709 6.432682,-3.790983 z" /></g></g></svg>
